<?xml version="1.0" encoding="UTF-8"?>
<!DOCTYPE svg PUBLIC "-//W3C//DTD SVG 1.1//EN" "http://www.w3.org/Graphics/SVG/1.1/DTD/svg11.dtd">
<!-- Creator: CorelDRAW -->
<svg xmlns="http://www.w3.org/2000/svg" xml:space="preserve" width="43.3493mm" height="43.3493mm" version="1.1" style="shape-rendering:geometricPrecision; text-rendering:geometricPrecision; image-rendering:optimizeQuality; fill-rule:evenodd; clip-rule:evenodd"
viewBox="0 0 209.52 209.52"
 xmlns:xlink="http://www.w3.org/1999/xlink"
 xmlns:xodm="http://www.corel.com/coreldraw/odm/2003">
 <defs>
  <style type="text/css">
   <![CDATA[
    .str0 {stroke:white;stroke-width:3.84;stroke-linecap:round;stroke-miterlimit:22.9256}
    .fil3 {fill:none;fill-rule:nonzero}
    .fil0 {fill:#EFDC05}
    .fil1 {fill:white}
    .fil2 {fill:white;fill-rule:nonzero}
   ]]>
  </style>
 </defs>
 <g id="Layer_x0020_1">
  <metadata id="CorelCorpID_0Corel-Layer"/>
  <g id="_1974717382432">
   <path class="fil0" d="M27.56 104.76c0,-42.64 34.57,-77.2 77.2,-77.2 6.81,0 13.42,0.88 19.72,2.54 1.96,0.52 3.98,-0.51 4.72,-2.4l0.08 -0.21c0.43,-1.1 0.37,-2.2 -0.16,-3.25 -0.53,-1.05 -1.4,-1.74 -2.53,-2.04 -6.97,-1.84 -14.28,-2.81 -21.82,-2.81 -47.15,0 -85.38,38.22 -85.38,85.38 0,18.29 5.75,35.23 15.54,49.12 0.68,0.96 1.63,1.53 2.8,1.66 1.17,0.13 2.22,-0.2 3.1,-0.98l0.16 -0.15c1.52,-1.35 1.78,-3.6 0.61,-5.26 -8.84,-12.56 -14.03,-27.87 -14.03,-44.39z"/>
   <path class="fil0" d="M140.91 36.53c5.53,2.93 10.65,6.52 15.28,10.65 1.51,1.35 3.78,1.36 5.29,0.01l0.16 -0.15c0.88,-0.78 1.33,-1.79 1.33,-2.97 0,-1.17 -0.45,-2.19 -1.33,-2.97 -5.13,-4.58 -10.81,-8.56 -16.94,-11.81 -1.04,-0.55 -2.15,-0.62 -3.25,-0.22 -1.1,0.41 -1.89,1.19 -2.32,2.28l-0.08 0.21c-0.74,1.89 0.05,4.01 1.84,4.96z"/>
   <path class="fil0" d="M104.76 181.97c-19.75,0 -37.78,-7.42 -51.43,-19.62 -1.51,-1.35 -3.78,-1.36 -5.29,-0.01l-0.16 0.15c-0.88,0.78 -1.33,1.79 -1.33,2.97 -0,1.17 0.45,2.19 1.33,2.97 15.1,13.51 35.04,21.72 56.9,21.72 47.15,0 85.38,-38.22 85.38,-85.38 0,-18.29 -5.75,-35.23 -15.54,-49.12 -0.68,-0.96 -1.63,-1.53 -2.8,-1.66 -1.17,-0.13 -2.22,0.2 -3.1,0.98l-0.16 0.15c-1.52,1.35 -1.78,3.6 -0.61,5.26 8.84,12.56 14.03,27.87 14.03,44.39 0,42.64 -34.57,77.2 -77.2,77.2z"/>
   <path class="fil0" d="M104.76 196.86c-50.86,0 -92.1,-41.23 -92.1,-92.09 0,-50.86 41.23,-92.09 92.1,-92.09 50.86,0 92.09,41.23 92.09,92.09 0,50.86 -41.23,92.09 -92.09,92.09zm0 -196.86c-57.86,0 -104.76,46.9 -104.76,104.76 0,57.86 46.9,104.76 104.76,104.76 57.86,0 104.76,-46.9 104.76,-104.76 0,-57.86 -46.9,-104.76 -104.76,-104.76z"/>
   <path class="fil1" d="M104.76 95.44c-5.15,0 -9.32,4.17 -9.32,9.32 0,5.15 4.17,9.32 9.32,9.32 5.15,0 9.32,-4.17 9.32,-9.32 0,-5.15 -4.17,-9.32 -9.32,-9.32zm0 13.11c-2.09,0 -3.79,-1.7 -3.79,-3.79 0,-2.09 1.7,-3.79 3.79,-3.79 2.09,0 3.79,1.7 3.79,3.79 0,2.09 -1.7,3.79 -3.79,3.79z"/>
   <path class="fil0" d="M162 133.14l-44.09 -26.34c-0.25,1.64 -0.82,3.26 -1.73,4.78 -1.07,1.8 -2.51,3.25 -4.15,4.32l44.42 26.53c2.56,1.53 5.9,0.68 7.42,-1.87 1.53,-2.56 0.68,-5.9 -1.87,-7.42z"/>
   <path class="fil0" d="M96.53 115.22c-2.98,-2.34 -4.8,-5.85 -5.05,-9.58l-25.1 12.4c-2.67,1.32 -3.77,4.58 -2.45,7.25 1.32,2.67 4.58,3.77 7.25,2.45l25.35 -12.53z"/>
   <g>
    <circle class="fil2" cx="62.98" cy="87.74" r="10.53"/>
    <circle class="fil2" cx="146.54" cy="87.74" r="10.53"/>
   </g>
   <path class="fil3 str0" d="M74.55 154.09c15.1,15.1 45.31,15.1 60.41,0"/>
  </g>
 </g>
</svg>
