<?xml version="1.0" encoding="UTF-8"?>
<!DOCTYPE svg PUBLIC "-//W3C//DTD SVG 1.1//EN" "http://www.w3.org/Graphics/SVG/1.1/DTD/svg11.dtd">
<!-- Creator: CorelDRAW -->
<svg xmlns="http://www.w3.org/2000/svg" xml:space="preserve" width="248.148mm" height="96.7003mm" version="1.1" style="shape-rendering:geometricPrecision; text-rendering:geometricPrecision; image-rendering:optimizeQuality; fill-rule:evenodd; clip-rule:evenodd"
viewBox="0 0 6381.21 2486.68"
 xmlns:xlink="http://www.w3.org/1999/xlink"
 xmlns:xodm="http://www.corel.com/coreldraw/odm/2003">
 <defs>
  <style type="text/css">
   <![CDATA[
    .fil2 {fill:#EFDC05}
    .fil0 {fill:#2563EB;fill-rule:nonzero}
    .fil1 {fill:white;fill-rule:nonzero}
   ]]>
  </style>
 </defs>
 <g id="Layer_x0020_1">
  <metadata id="CorelCorpID_0Corel-Layer"/>
  <path class="fil0" d="M1322.3 245.14c-91.62,-165.9 -242.67,-245.14 -524.96,-245.14 -237.72,0 -433.34,4.95 -574.48,7.43 -81.72,2.48 -156,2.48 -222.86,4.96l0 1854.69 463.05 0 0 -544.77c49.53,4.95 96.57,9.91 138.67,14.86 76.76,7.43 158.48,12.38 195.62,9.9 307.05,0 468.01,-94.09 557.15,-299.62 29.71,-59.43 42.1,-170.86 42.1,-329.34l0 -86.67c0,-188.2 -32.19,-299.62 -74.29,-386.29zm-346.67 351.63l0 165.9c0,116.38 -19.81,151.05 -56.95,190.67 -39.62,47.05 -106.48,69.33 -455.62,29.71l0 -633.91c309.53,-27.24 411.05,-7.43 468.01,49.53 27.24,32.19 44.57,76.76 44.57,198.1zm2961.55 113.9c-101.52,-168.38 -242.67,-188.19 -401.15,-180.76 -200.57,7.43 -331.81,89.14 -359.05,101.53 -7.43,-27.24 -17.33,-44.57 -24.76,-61.91l-12.38 -24.76 -336.77 0 0 1322.3 406.1 0 0 -940.96c66.86,-39.62 126.29,-49.52 173.34,-56.95 27.24,-2.48 54.48,0 79.24,2.48 76.76,17.33 116.38,66.86 116.38,148.57l0 846.87 408.58 0 0 -772.58c0,-205.53 -12.38,-314.48 -49.53,-383.82zm1134.11 864.2c-12.38,0 -141.14,-7.43 -212.95,-39.62 -89.14,-27.24 -89.14,-94.1 -89.14,-180.77l0 -468 0 376.38 0 -376.38 267.43 0 42.1 -339.24 -309.53 0 0 -398.67 -406.1 69.33 0 329.34 -198.1 0 0 339.24 198.1 0 0 252.57c0,128.76 2.48,262.48 2.48,269.91 0,487.81 319.43,463.05 609.15,463.05l96.57 0 0 -297.14zm1277.73 -730.49c-79.24,-208 -252.57,-316.95 -537.34,-316.95l-39.62 0c-86.67,0 -160.95,14.86 -237.72,37.14 -222.86,71.81 -334.29,237.72 -334.29,495.24l0 289.72c0,108.96 19.81,198.1 56.95,269.91 81.72,175.81 260.01,264.96 529.91,264.96 126.29,0 232.76,-19.81 321.91,-56.95 180.76,-79.24 272.38,-245.15 272.38,-500.2l0 -242.67c0,-94.09 -9.91,-173.33 -32.19,-240.19zm-373.91 225.34l0 269.91c0,37.14 -2.47,61.9 -2.47,84.19 -22.29,81.72 -81.72,123.81 -175.81,123.81l-9.91 0c-118.86,0 -178.29,-56.95 -178.29,-170.86l0 -331.81c0,-37.15 4.95,-61.91 12.38,-84.19 29.72,-59.43 81.72,-89.14 153.53,-89.14l32.19 0c29.71,0 56.95,2.48 79.24,14.86 59.43,17.33 89.14,79.24 89.14,183.24z"/>
  <path class="fil1" d="M2188.49 2313.3c-13.31,54.8 -39.69,97.36 -79.14,127.7 -39.45,30.45 -88.13,45.68 -145.92,45.68 -76.62,0 -139.69,-25.3 -189.21,-76.02 -49.52,-50.72 -74.22,-115.11 -74.22,-193.04 0,-77.1 24.58,-141.13 73.62,-192.32 49.04,-51.2 110.67,-76.74 184.89,-76.74 32.97,0 62.83,5.04 89.69,14.99 26.74,9.95 48.92,24.34 66.19,43.28l0 -48.2 56.11 0 0 160.43 -53.36 0c-11.63,-36.81 -30.34,-64.39 -56,-82.61 -25.66,-18.35 -58.51,-27.46 -98.56,-27.46 -58.27,0 -104.92,18.94 -139.81,56.95 -34.89,37.89 -52.28,88.49 -52.28,151.68 0,61.87 18.11,111.99 54.44,150.72 36.33,38.61 83.33,57.91 141.13,57.91 38.61,0 70.98,-9.35 97.12,-28.06 26.14,-18.71 46.52,-47 61.27,-84.89l64.03 0zm49.64 -2.16c0,-49.16 17.27,-90.17 51.68,-123.14 34.41,-32.97 77.34,-49.52 128.9,-49.52 51.8,0 94.84,16.55 129.14,49.52 34.29,32.97 51.44,73.98 51.44,123.14 0,49.16 -17.15,90.29 -51.44,123.5 -34.29,33.21 -77.34,49.88 -129.14,49.88 -51.56,0 -94.48,-16.67 -128.9,-49.88 -34.41,-33.21 -51.68,-74.34 -51.68,-123.5zm64.03 0c0,34.89 11.15,63.91 33.45,86.93 22.18,23.14 49.88,34.65 82.97,34.65 33.45,0 61.27,-11.39 83.45,-34.29 22.18,-22.78 33.21,-51.92 33.21,-87.29 0,-35.37 -11.03,-64.51 -33.21,-87.29 -22.18,-22.9 -50,-34.29 -83.45,-34.29 -33.09,0 -60.79,11.51 -82.97,34.65 -22.3,23.02 -33.45,52.04 -33.45,86.93zm677.69 115.82l50.36 0 0 49.64 -162.59 0 0 -49.64 50.36 0 0 -148.08c0,-34.65 -4.44,-57.55 -13.31,-68.46 -8.87,-11.03 -23.86,-16.55 -44.96,-16.55 -17.15,0 -34.05,4.68 -50.96,13.91 -16.79,9.23 -34.41,23.62 -52.64,43.04l0 176.14 51.08 0 0 49.64 -163.31 0 0 -49.64 51.08 0 0 -230.21 -51.08 0 0 -49.64 112.23 0 0 46.76c19.18,-18.95 38.61,-32.85 58.15,-41.85 19.54,-8.99 40.17,-13.55 61.99,-13.55 18.94,0 35.85,3.36 50.72,9.95 14.87,6.71 26.98,16.43 36.33,29.02 5.88,7.67 10.07,16.31 12.71,25.66 2.52,9.35 3.84,23.02 3.84,41.01l0 12.35 0 170.5zm144.6 -145.32l221.58 0c-4.68,-30.22 -16.43,-53.24 -35.37,-69.06 -18.83,-15.83 -44,-23.74 -75.42,-23.74 -31.41,0 -56.59,7.92 -75.42,23.74 -18.94,15.83 -30.7,38.85 -35.37,69.06zm277.57 97.12c-15.23,33.09 -37.65,59.23 -67.26,78.06 -29.62,18.94 -62.95,28.42 -100.24,28.42 -52.16,0 -94.24,-16.19 -126.14,-48.44 -32.02,-32.25 -47.96,-75.06 -47.96,-128.42 0,-51.32 15.95,-92.44 47.72,-123.38 31.89,-31.05 74.22,-46.52 127.1,-46.52 52.4,0 94.6,16.79 126.74,50.24 32.01,33.45 48.08,77.94 48.08,133.33l0 7.79 -285.61 0c2.4,30.93 14.51,55.87 36.45,74.94 21.82,19.07 49.4,28.66 82.49,28.66 20.86,0 40.05,-4.68 57.79,-14.15 17.75,-9.47 32.13,-23.02 43.4,-40.53l57.43 0zm328.78 2.16l33.21 32.37c-17.99,23.38 -39.69,41.25 -64.99,53.48 -25.3,12.35 -53.24,18.46 -83.93,18.46 -49.88,0 -89.57,-15.59 -119.06,-46.88 -29.5,-31.17 -44.24,-72.9 -44.24,-125.06 0,-52.4 14.27,-94.72 42.93,-126.74 28.65,-32.01 66.43,-48.08 113.19,-48.08 21.34,0 40.17,3.24 56.48,9.83 16.43,6.48 31.17,16.67 44.24,30.34l0 -31.53 48.2 0 0 113.67 -44 0c-9.35,-23.62 -22.3,-41.37 -38.97,-53.36 -16.67,-11.87 -36.57,-17.86 -59.71,-17.86 -29.73,0 -53.72,11.27 -71.82,33.93 -18.1,22.54 -27.22,52.52 -27.22,89.81 0,37.65 9.71,67.15 29.14,88.37 19.42,21.22 46.64,31.77 81.53,31.77 20.14,0 38.97,-4.32 56.36,-13.07 17.5,-8.63 33.69,-21.82 48.68,-39.45zm172.9 -20.98l0 10.91c0,26.38 2.28,42.32 6.84,47.84 4.56,5.52 15.11,8.27 31.53,8.27 2.52,0 10.19,-1.08 22.9,-3.12l3.48 -0.36 0 52.52c-7.07,1.08 -14.63,2.04 -22.9,2.64 -8.15,0.6 -17.74,0.84 -28.78,0.84 -26.98,0 -45.56,-4.68 -55.87,-13.91 -10.31,-9.23 -15.47,-25.78 -15.47,-49.52l0 -219.3 -59.71 0 0 -49.64 59.71 0 0 -123.02 58.27 0 0 123.02 64.75 0 0 49.64 -64.75 0 0 163.19zm172.78 -48.08c0,35.13 10.79,64.15 32.37,87.17 21.58,22.9 48.44,34.41 80.46,34.41 32.13,0 58.99,-11.51 80.45,-34.41 21.34,-23.02 32.13,-52.04 32.13,-87.17 0,-35.13 -10.79,-64.03 -32.13,-86.81 -21.46,-22.66 -48.32,-34.05 -80.45,-34.05 -32.97,0 -60.07,11.27 -81.18,33.93 -21.1,22.54 -31.65,51.56 -31.65,86.93zm282.73 115.1l50.36 0 0 49.64 -112.23 0 0 -43.88c-13.31,17.03 -29.86,29.97 -49.52,38.73 -19.66,8.75 -41.97,13.07 -66.79,13.07 -47.96,0 -88.25,-16.55 -120.62,-49.64 -32.49,-33.09 -48.68,-74.1 -48.68,-123.02 0,-48.92 16.31,-90.05 48.8,-123.38 32.61,-33.33 72.78,-50 120.5,-50 24.1,0 45.92,4.32 65.23,12.95 19.3,8.63 36.33,21.58 51.08,38.85l0 -43.17 112.23 0 0 49.64 -50.36 0 0 230.21zm406.71 -2.16l56.12 0 0 51.8 -178.42 0 0 -51.8 58.27 0 0 -414.38 -58.27 0 0 -51.8 166.78 0 132.37 365.35 135.85 -365.35 157.07 0 0 51.8 -58.27 0 0 414.38 58.27 0 0 51.8 -178.42 0 0 -51.8 56.11 0 0 -400.71 -153.36 403.59 -40.77 0 -153.36 -403.59 0 400.71zm574.81 -112.95c0,35.13 10.79,64.15 32.37,87.17 21.58,22.9 48.44,34.41 80.46,34.41 32.13,0 58.99,-11.51 80.45,-34.41 21.34,-23.02 32.13,-52.04 32.13,-87.17 0,-35.13 -10.79,-64.03 -32.13,-86.81 -21.46,-22.66 -48.32,-34.05 -80.45,-34.05 -32.97,0 -60.07,11.27 -81.18,33.93 -21.1,22.54 -31.65,51.56 -31.65,86.93zm282.73 115.1l50.36 0 0 49.64 -112.23 0 0 -43.88c-13.31,17.03 -29.86,29.97 -49.52,38.73 -19.66,8.75 -41.97,13.07 -66.79,13.07 -47.96,0 -88.25,-16.55 -120.62,-49.64 -32.49,-33.09 -48.68,-74.1 -48.68,-123.02 0,-48.92 16.31,-90.05 48.8,-123.38 32.61,-33.33 72.78,-50 120.5,-50 24.1,0 45.92,4.32 65.23,12.95 19.3,8.63 36.33,21.58 51.08,38.85l0 -43.17 112.23 0 0 49.64 -50.36 0 0 230.21zm122.42 -361.87l0 -66.19 88.49 0 0 66.19 -88.49 0zm88.49 361.87l57.55 0 0 49.64 -175.54 0 0 -49.64 56.83 0 0 -230.21 -56.83 0 0 -49.64 117.98 0 0 279.85zm141.6 49.64l-48.2 0 0 -107.19 48.2 0c8.87,20.38 23.5,36.69 43.89,48.8 20.26,12.11 43.4,18.1 69.06,18.1 21.34,0 38.61,-4.55 51.92,-13.55 13.31,-8.99 20.02,-20.86 20.02,-35.37 0,-11.51 -3.72,-20.38 -11.27,-26.74 -7.43,-6.36 -20.26,-11.15 -38.49,-14.39l-77.7 -13.79c-35.73,-5.99 -62.11,-17.03 -78.89,-32.97 -16.91,-15.83 -25.3,-37.41 -25.3,-64.51 0,-29.74 10.79,-53.24 32.49,-70.5 21.58,-17.39 51.32,-26.02 88.97,-26.02 22.9,0 43.28,3.36 61.15,10.19 17.75,6.71 30.34,15.71 37.53,26.62l0 -28.18 48.92 0 0 101.44 -48.92 0c-11.51,-22.66 -25.06,-39.09 -40.89,-49.4 -15.83,-10.19 -35.37,-15.35 -58.51,-15.35 -19.66,0 -35.37,4.32 -47.12,12.95 -11.63,8.63 -17.51,20.26 -17.51,34.65 0,11.51 4.32,20.5 12.83,27.22 8.51,6.6 22.18,11.63 40.89,14.87l67.87 11.63c41.01,6.95 69.66,17.63 85.85,31.89 16.19,14.27 24.22,35.13 24.22,62.59 0,31.53 -11.75,57.07 -35.13,76.5 -23.38,19.42 -54.32,29.14 -92.69,29.14 -22.06,0 -42.32,-3.48 -60.79,-10.31 -18.58,-6.84 -35.97,-17.27 -52.4,-31.29l0 32.97z"/>
  <g id="_1903905160240">
   <path class="fil2" d="M1606.4 1205.92c0,-269.1 218.15,-487.24 487.24,-487.24 43,0 84.71,5.57 124.43,16.03 12.39,3.26 25.11,-3.2 29.77,-15.14l0.51 -1.3c2.7,-6.91 2.36,-13.9 -1,-20.51 -3.36,-6.61 -8.81,-11.01 -15.98,-12.9 -43.96,-11.59 -90.12,-17.76 -137.72,-17.76 -297.58,0 -538.82,241.24 -538.82,538.82 0,115.4 36.28,222.33 98.05,310 4.27,6.06 10.28,9.63 17.65,10.48 7.36,0.85 14.03,-1.26 19.56,-6.18l1.03 -0.92c9.58,-8.52 11.22,-22.72 3.84,-33.21 -55.79,-79.25 -88.56,-175.88 -88.56,-280.17z"/>
   <path class="fil2" d="M2321.79 775.28c34.88,18.52 67.24,41.14 96.43,67.24 9.56,8.54 23.84,8.56 33.42,0.04l1.03 -0.92c5.54,-4.93 8.41,-11.31 8.42,-18.72 0.01,-7.41 -2.84,-13.8 -8.37,-18.74 -32.35,-28.93 -68.22,-54.02 -106.88,-74.53 -6.55,-3.48 -13.54,-3.94 -20.5,-1.36 -6.96,2.58 -11.95,7.49 -14.65,14.4l-0.51 1.3c-4.66,11.93 0.3,25.3 11.61,31.31z"/>
   <path class="fil2" d="M2093.64 1693.16c-124.67,0 -238.41,-46.82 -324.58,-123.85 -9.56,-8.54 -23.84,-8.56 -33.41,-0.04l-1.03 0.92c-5.54,4.93 -8.41,11.31 -8.42,18.72 -0.01,7.41 2.84,13.8 8.37,18.74 95.31,85.24 221.14,137.07 359.07,137.07 297.58,0 538.82,-241.24 538.82,-538.82 0,-115.4 -36.28,-222.33 -98.05,-310 -4.27,-6.06 -10.28,-9.63 -17.65,-10.48 -7.36,-0.85 -14.03,1.26 -19.56,6.18l-1.03 0.92c-9.58,8.52 -11.22,22.72 -3.84,33.2 55.79,79.25 88.56,175.89 88.56,280.17 0,269.09 -218.15,487.24 -487.24,487.24z"/>
   <path class="fil2" d="M2093.64 1787.14c-321,0 -581.22,-260.22 -581.22,-581.22 0,-321 260.22,-581.22 581.22,-581.22 321,0 581.22,260.22 581.22,581.22 0,321 -260.22,581.22 -581.22,581.22zm0 -1242.37c-365.14,0 -661.15,296.01 -661.15,661.15 0,365.14 296.01,661.15 661.15,661.15 365.14,0 661.15,-296.01 661.15,-661.15 0,-365.14 -296.01,-661.15 -661.15,-661.15z"/>
   <path class="fil2" d="M2093.64 1147.07c-32.5,0 -58.85,26.35 -58.85,58.85 0,32.5 26.35,58.84 58.85,58.84 32.5,0 58.84,-26.35 58.84,-58.84 0,-32.5 -26.35,-58.85 -58.84,-58.85zm0 82.76c-13.21,0 -23.92,-10.71 -23.92,-23.92 0,-13.21 10.71,-23.92 23.92,-23.92 13.21,0 23.92,10.71 23.92,23.92 0,13.21 -10.71,23.92 -23.92,23.92z"/>
   <path class="fil2" d="M2062.16 803.92l0 324.15c9.72,-3.93 20.35,-6.1 31.48,-6.1 13.21,0 25.72,3.05 36.84,8.5l0 -326.54c0,-18.79 -15.37,-34.16 -34.16,-34.16 -18.79,0 -34.16,15.37 -34.16,34.16z"/>
   <path class="fil2" d="M2070.45 1286.62c-23.02,-6.61 -41.99,-22.8 -52.31,-43.97l-117.17 132.22c-12.46,14.06 -11.15,35.76 2.91,48.22 14.06,12.46 35.76,11.15 48.22,-2.91l118.36 -133.56z"/>
  </g>
 </g>
</svg>
